PathFileType	3	(X/Y/Z)	D:\minhoCalibration\240510\subject5_KPNP\preferred\preferred17.trc
DataRate	CameraRate	NumFrames	NumMarkers	Units	OrigDataRate	OrigDataStartFrame	OrigNumFrames
200.0	200.0	24	10	mm	200.0	162	170	
Frame#	Time	Left_Ankle_Outer1			Left_Ankle_Inner1			Left_Knee_Outer1			Left_Knee_Inner1			Left_Wrist1			Right_Wrist1			Right_Knee_Inner1			Right_Knee_Outer1			Right_Ankle_Inner1			Right_Ankle_Outer1			
		X1	Y1	Z1	X2	Y2	Z2	X3	Y3	Z3	X4	Y4	Z4	X5	Y5	Z5	X6	Y6	Z6	X7	Y7	Z7	X8	Y8	Z8	X9	Y9	Z9	X10	Y10	Z10	
162	0.8	41.404736	80.717354	-609.53082	-7.3098817	98.659264	-610.61926	163.09367	522.00336	-461.58377	68.887802	515.27594	-451.62537	250.97218	986.04395	-630.29712	-60.64299	1112.2012	-634.40112	-329.70065	754.12543	-330.54984	-374.16211	830.25647	-372.33151	-232.74835	514.25806	-715.73138	-267.17657	596.68304	-756.56445
163	0.805	39.010479	81.474098	-609.55011	-9.7521305	99.512894	-609.19672	165.59135	521.86981	-462.75323	71.918373	515.17645	-449.5267	249.68182	984.67908	-634.25043	-60.148903	1115.5204	-625.51642	-326.52515	766.33539	-313.62927	-370.40451	844.03467	-352.73492	-245.86159	529.61682	-704.01892	-280.50806	612.85864	-742.3443
164	0.81	36.555416	82.496315	-609.67706	-11.975276	100.86358	-608.14484	168.2122	521.59564	-463.56042	74.839317	515.01886	-447.05365	248.16281	983.28094	-638.12384	-58.726379	1121.1517	-617.42224	-322.48325	778.57098	-295.31644	-365.75003	857.68207	-333.16861	-259.53259	545.17206	-691.81732	-293.80072	629.56891	-727.89233
165	0.815	33.641205	83.609734	-609.71356	-14.453881	102.22971	-607.04333	170.81845	521.41943	-464.358	78.118454	514.63208	-444.74924	246.32648	981.82843	-641.96808	-55.526478	1126.316	-608.70319	-317.73203	790.68683	-279.05988	-359.82321	871.32623	-314.25833	-273.42093	561.1543	-679.76733	-306.78424	646.63	-713.46509
166	0.82	30.579203	84.666862	-609.49268	-17.221331	103.61118	-605.60034	173.24692	521.20197	-465.02011	81.192467	514.41547	-441.94736	240.92482	978.56183	-650.19855	-52.860802	1130.2784	-599.42548	-312.4859	802.39398	-262.12924	-353.1604	884.61316	-295.64114	-287.75595	577.0473	-666.95276	-319.62018	664.13922	-699.1864
167	0.825	27.340015	85.921814	-609.3324	-20.325466	105.09332	-603.86829	175.57123	520.86542	-465.65057	84.562424	514.13544	-439.40524	237.97948	976.91327	-654.40491	-51.650753	1133.8116	-592.85797	-306.43945	814.04089	-245.71289	-345.59335	897.58679	-277.34198	-302.20929	593.29596	-654.3429	-332.9639	681.74982	-683.51752
168	0.83	24.048628	87.274086	-608.96808	-23.292225	106.68382	-602.33301	177.88251	520.63916	-466.41818	87.761414	513.93805	-436.54782	238.43109	977.15216	-653.59784	-49.043621	1137.5776	-585.94495	-299.83438	825.15332	-229.15083	-337.18155	910.50232	-259.36493	-317.19843	609.93188	-640.70746	-346.25714	699.51752	-667.71576
169	0.835	21.078192	88.634048	-608.97632	-26.27128	107.5978	-599.70679	180.22429	520.32184	-467.46954	91.14666	513.76782	-434.09778	236.69388	975.88544	-655.58148	-46.508316	1141.287	-579.24414	-292.30594	836.09436	-213.68681	-327.75012	922.78064	-242.05504	-332.55783	627.13965	-626.87305	-359.69186	717.58289	-651.38788
170	0.84	17.824774	89.749672	-608.60602	-29.331257	109.38143	-597.90082	181.84453	520.0332	-468.29752	94.252983	513.46753	-431.75412	226.80965	970.34833	-667.72211	-43.876793	1145.0214	-573.23779	-284.28497	846.76044	-198.6357	-317.5032	934.6983	-225.30037	-347.98114	644.31281	-612.42639	-373.21027	735.87555	-634.48254
171	0.845	14.40167	90.639519	-607.61334	-32.134396	110.40738	-596.06854	183.37773	519.75946	-469.41052	97.340775	513.25476	-429.73914	222.50853	968.44696	-671.09314	-41.248135	1148.2374	-567.50574	-275.54941	857.18805	-184.34233	-306.20657	946.17639	-209.23897	-363.78754	661.91034	-596.99976	-386.48544	754.37067	-616.99756
172	0.85	11.046718	91.128571	-606.60425	-34.562046	110.90659	-594.45703	184.41328	519.56818	-470.55627	100.12202	513.02216	-427.86801	217.51373	966.23529	-675.29565	-38.225056	1151.5087	-561.63519	-266.12045	866.81927	-169.72807	-294.22681	957.72968	-193.80296	-380.1098	679.60803	-580.56189	-400.14264	773.15674	-598.51581
173	0.855	8.5123358	91.709824	-606.07397	-36.869251	111.54116	-592.00433	185.25284	519.36554	-472.00143	102.58707	512.78638	-426.38806	214.02437	964.45575	-676.50238	-35.260628	1154.5817	-556.6286	-256.35864	876.43304	-156.56107	-281.60559	968.25702	-179.25021	-395.9552	697.63538	-563.26788	-413.68512	791.9411	-579.1521
174	0.86	5.5294967	91.848854	-605.0661	-39.08065	111.95392	-590.26825	185.67751	519.08081	-473.4718	104.74657	512.38806	-425.24417	209.02402	962.13184	-679.72229	-32.395317	1157.3279	-551.82819	-246.1145	885.52435	-144.08354	-268.25473	978.45331	-165.40256	-412.28418	715.83069	-544.52319	-427.10309	810.8399	-558.80109
175	0.865	3.6617315	92.084816	-605.03363	-41.236034	112.03545	-588.60358	185.74936	518.9082	-475.10843	106.51328	511.96088	-424.43082	203.963	959.84656	-682.48248	-29.763525	1159.6396	-547.42072	-235.61307	894.25092	-132.2943	-254.42117	987.63269	-152.55569	-428.7753	734.00238	-524.50177	-440.52048	829.55042	-537.40796
176	0.87	1.4865144	91.980194	-604.47156	-43.356915	111.70602	-586.71515	185.39676	518.61029	-476.6846	107.7264	511.51819	-423.76517	199.02718	957.65485	-685.12061	-27.383512	1162.0764	-545.03278	-224.73964	902.55853	-121.40495	-240.52563	996.52222	-140.68401	-445.3685	752.20172	-502.86591	-453.82416	848.23474	-514.78882
177	0.875	-0.42381486	91.638741	-604.06415	-45.071266	111.76871	-585.75909	184.6544	518.297	-478.3187	108.43173	511.02542	-423.4357	194.0592	955.53052	-687.38263	-24.747177	1164.097	-541.29169	-213.93298	910.38251	-111.29336	-226.26312	1004.6073	-129.93474	-462.08878	770.23267	-479.4527	-466.95163	866.75586	-490.96997
178	0.88	-2.2074666	91.059753	-603.87482	-46.402149	111.12914	-585.25507	183.77179	517.98315	-479.92392	108.56022	510.51407	-423.12796	189.04259	953.4671	-689.37854	-22.471834	1165.9674	-537.66162	-203.18655	917.6142	-102.00878	-211.88884	1012.3657	-120.14418	-478.61871	788.45154	-454.46832	-479.94565	885.06171	-465.77509
179	0.885	-3.3400095	90.742348	-604.1712	-47.958874	110.41363	-584.71741	182.66484	517.82404	-481.34515	108.22573	509.91071	-422.95917	183.72084	951.354	-690.83313	-19.887222	1167.8292	-535.81024	-192.41156	924.82336	-94.216743	-197.97675	1019.4652	-111.35896	-494.84988	806.45325	-427.40698	-492.59363	903.18011	-439.00217
180	0.89	-5.6250954	89.386826	-603.36664	-49.417839	109.6686	-584.60669	181.1216	517.27814	-482.46127	107.36488	509.2963	-422.91089	179.41339	949.54706	-692.36047	-17.730505	1169.3453	-533.04431	-181.95053	931.54437	-86.695763	-184.26685	1026.1241	-103.73125	-510.61386	824.33771	-398.26898	-505.27609	920.95361	-411.31708
181	0.895	-6.1049776	88.782509	-604.50671	-50.569679	108.50124	-584.36682	179.21677	516.75269	-483.15085	106.20106	508.58627	-423.04779	174.5186	947.58502	-693.54266	-16.174656	1170.6067	-529.92035	-172.31233	938.04828	-79.954552	-171.30788	1032.4668	-97.093857	-525.70093	842.03357	-367.26642	-517.0733	938.41479	-381.28314
182	0.9	-7.3383231	87.712158	-604.3291	-51.765232	107.37984	-584.03156	177.29674	516.15613	-483.62637	104.45685	508.07251	-423.03091	170.00713	945.81427	-694.96497	-14.116932	1171.7007	-526.56805	-162.76003	944.38037	-74.16526	-159.39377	1038.5469	-91.589577	-540.03479	859.36316	-334.68393	-528.51294	955.45013	-349.92526
183	0.905	-8.5008039	86.533379	-604.38019	-52.513554	106.47271	-584.75549	175.50772	515.8501	-483.82761	102.68147	507.34286	-423.24039	165.66724	944.08606	-696.34576	-12.265362	1172.9244	-524.52747	-154.75488	950.6507	-69.048653	-148.58528	1044.4655	-87.312637	-553.44281	875.23016	-298.71005	-539.35175	972.0675	-317.07312
184	0.91	-9.3944159	85.447441	-604.59131	-53.695065	105.29927	-584.49414	173.80531	515.56354	-483.83035	100.68486	506.65845	-423.24844	161.50673	942.41187	-697.61749	-11.312011	1173.7559	-522.33722	-146.91261	956.92902	-64.834435	-138.34857	1050.1234	-83.70488	-565.4939	892.44159	-261.26572	-549.31006	988.27814	-282.31888
185	0.915	-10.350281	84.498535	-604.48749	-54.215294	104.27728	-584.87512	171.67766	515.01099	-483.39932	98.575172	506.03931	-423.20581	157.3542	940.7959	-698.84998	-9.2803154	1174.2238	-521.06104	-140.06587	963.15094	-61.36467	-129.71294	1055.694	-81.400726	-575.72601	909.76007	-220.04742	-558.22144	1004.0572	-245.71532
